<?xml version="1.0" encoding="utf-8"?>
<!-- Generator: Adobe Illustrator 26.3.1, SVG Export Plug-In . SVG Version: 6.00 Build 0)  -->
<svg version="1.1" id="Layer_1" xmlns="http://www.w3.org/2000/svg" xmlns:xlink="http://www.w3.org/1999/xlink" x="0px" y="0px"
	 viewBox="196 332 700 420" xml:space="preserve">
<style type="text/css">
	.st0{fill:transparent;}
	.st1{fill:url(#SVGID_1_);}
	.st2{fill:url(#SVGID_00000134226767312873932180000002219861781869005192_);}
	.st3{fill:url(#SVGID_00000043430090733706815710000004116392732241596089_);}
	.st4{fill:url(#SVGID_00000040557023580919810820000000749694900540915117_);}
	.st5{fill:url(#SVGID_00000150812842818648213640000018439309427034411451_);}
	.st6{fill:url(#SVGID_00000041277071742508206140000001357361910421839788_);}
	.st7{fill:url(#SVGID_00000091728660308490399410000001238473167525964161_);}
	.st8{fill:url(#SVGID_00000091722982450583007760000015930825236878701245_);}
	.st9{fill:url(#SVGID_00000045594393354443272630000001085411890900247214_);}
	.st10{fill:url(#SVGID_00000109012908824509995550000005321636925196711810_);}
	.st11{fill:url(#SVGID_00000093866940571737276720000001773910165842838431_);}
	.st12{fill:url(#SVGID_00000003095021211706392830000014595081755600002714_);}
	.st13{fill:url(#SVGID_00000032629371598999434380000018104534683756196010_);}
	.st14{fill:url(#SVGID_00000082332657008368726730000011325768200852034236_);}
	.st15{fill:url(#SVGID_00000132067523796183345900000007904964875275577764_);}
	.st16{fill:url(#SVGID_00000139993827116860394820000004480349906052599941_);}
	.st17{fill:url(#SVGID_00000044897449225397577960000011252113078503329718_);}
	.st18{fill:url(#SVGID_00000106834829394075375540000003240810195592468370_);}
</style>
<g>
	<rect x="0" class="st0" width="1080" height="1080"/>
	<g>
		<g>
			<linearGradient id="SVGID_1_" gradientUnits="userSpaceOnUse" x1="198.7905" y1="706.2615" x2="252.0483" y2="706.2615">
				<stop  offset="0" style="stop-color:#A18357"/>
				<stop  offset="0.45" style="stop-color:#EEC280"/>
				<stop  offset="0.9725" style="stop-color:#A18357"/>
			</linearGradient>
			<path class="st1" d="M252.05,693.34c0,15.23-12.83,21.23-28.89,21.23h-10.52v23.08h5.54v0.92h-19.38v-0.92h5.54v-62.76h-5.54
				v-0.92h24.37C240.05,673.96,252.05,678.66,252.05,693.34z M242.82,694.63c0-10.06-3.69-19.2-19.66-19.2h-10.52v37.66h10.52
				C238.3,713.09,242.82,705.8,242.82,694.63z"/>
			
				<linearGradient id="SVGID_00000042703028184090225530000000949994197602919103_" gradientUnits="userSpaceOnUse" x1="243.7378" y1="706.2615" x2="303.7329" y2="706.2615">
				<stop  offset="0" style="stop-color:#A18357"/>
				<stop  offset="0.45" style="stop-color:#EEC280"/>
				<stop  offset="0.9725" style="stop-color:#A18357"/>
			</linearGradient>
			<path style="fill:url(#SVGID_00000042703028184090225530000000949994197602919103_);" d="M279.73,737.64h11.91l-9.6-24.92h-22.98
				l-6.55,16.98c-2.49,7.11-1.2,7.85,7.85,7.94v0.92h-16.61v-0.92c2.68-0.09,4.25-0.83,6.83-6.65l21.97-57.04h3.42l24.55,63.69h3.23
				v0.92h-24V737.64z M250.66,734.6l-1.2,3.05L250.66,734.6z M281.67,711.8L270.5,683l-11.08,28.8H281.67z"/>
			
				<linearGradient id="SVGID_00000129183241687293198740000012737352052002639789_" gradientUnits="userSpaceOnUse" x1="305.1128" y1="706.9998" x2="362.2471" y2="706.9998">
				<stop  offset="0" style="stop-color:#A18357"/>
				<stop  offset="0.45" style="stop-color:#EEC280"/>
				<stop  offset="0.9725" style="stop-color:#A18357"/>
			</linearGradient>
			<path style="fill:url(#SVGID_00000129183241687293198740000012737352052002639789_);" d="M310.65,717.89v-43.01h-5.54v-0.92
				h23.08v0.92h-9.23v43.66c0,14.21,4.89,20.03,15.32,20.03c12.46,0,21.32-8.31,21.32-19.84v-34.89c0-7.38-0.55-8.77-7.38-8.95
				v-0.92h14.03v0.92c-3.97,0.18-5.26,1.57-5.26,8.95v34.43c0,13.38-9.41,21.78-24.09,21.78
				C318.87,740.04,310.65,733.31,310.65,717.89z"/>
			
				<linearGradient id="SVGID_00000092445270805547025480000009419035198403260852_" gradientUnits="userSpaceOnUse" x1="363.1655" y1="706.2615" x2="411.0698" y2="706.2615">
				<stop  offset="0" style="stop-color:#A18357"/>
				<stop  offset="0.45" style="stop-color:#EEC280"/>
				<stop  offset="0.9725" style="stop-color:#A18357"/>
			</linearGradient>
			<path style="fill:url(#SVGID_00000092445270805547025480000009419035198403260852_);" d="M382.55,674.88h-5.54v62.76h17.91
				c12.18,0,12.46-0.37,15.14-17.54h1.02l-2.68,18.46H368.7v-63.69h-5.54v-0.92h19.38V674.88z"/>
			
				<linearGradient id="SVGID_00000099663912442641830600000008357119670073186734_" gradientUnits="userSpaceOnUse" x1="413.8345" y1="706.2615" x2="433.2178" y2="706.2615">
				<stop  offset="0" style="stop-color:#A18357"/>
				<stop  offset="0.45" style="stop-color:#EEC280"/>
				<stop  offset="0.9725" style="stop-color:#A18357"/>
			</linearGradient>
			<path style="fill:url(#SVGID_00000099663912442641830600000008357119670073186734_);" d="M433.22,674.88h-5.54v62.76h5.54v0.92
				h-19.38v-0.92h5.54v-62.76h-5.54v-0.92h19.38V674.88z"/>
			
				<linearGradient id="SVGID_00000036230445197932350100000002084977294193095353_" gradientUnits="userSpaceOnUse" x1="435.9844" y1="706.2615" x2="490.3496" y2="706.2615">
				<stop  offset="0" style="stop-color:#A18357"/>
				<stop  offset="0.45" style="stop-color:#EEC280"/>
				<stop  offset="0.9725" style="stop-color:#A18357"/>
			</linearGradient>
			<path style="fill:url(#SVGID_00000036230445197932350100000002084977294193095353_);" d="M483.7,728.04v-44.21
				c0-7.38-1.57-8.68-5.54-8.95v-0.92h12.18v0.92c-3.69,0.28-5.26,1.57-5.26,8.95v54.73h-4.8l-37.66-62.76v52.89
				c0,7.38,1.57,8.68,5.54,8.95v0.92h-12.18v-0.92c3.69-0.28,5.26-1.57,5.26-8.95v-53.81h-5.26v-0.92h15.05L483.7,728.04z"/>
			
				<linearGradient id="SVGID_00000081622253698252986270000006441329798986166942_" gradientUnits="userSpaceOnUse" x1="490.8066" y1="706.2615" x2="550.8022" y2="706.2615">
				<stop  offset="0" style="stop-color:#A18357"/>
				<stop  offset="0.45" style="stop-color:#EEC280"/>
				<stop  offset="0.9725" style="stop-color:#A18357"/>
			</linearGradient>
			<path style="fill:url(#SVGID_00000081622253698252986270000006441329798986166942_);" d="M526.8,737.64h11.91l-9.6-24.92h-22.98
				l-6.55,16.98c-2.49,7.11-1.2,7.85,7.85,7.94v0.92h-16.61v-0.92c2.68-0.09,4.25-0.83,6.83-6.65l21.97-57.04h3.42l24.55,63.69h3.23
				v0.92h-24V737.64z M497.73,734.6l-1.2,3.05L497.73,734.6z M528.74,711.8L517.57,683l-11.08,28.8H528.74z"/>
			
				<linearGradient id="SVGID_00000000923638489089302480000005872897939041649325_" gradientUnits="userSpaceOnUse" x1="570.6401" y1="706.2615" x2="629.7124" y2="706.2615">
				<stop  offset="0" style="stop-color:#A18357"/>
				<stop  offset="0.45" style="stop-color:#EEC280"/>
				<stop  offset="0.9725" style="stop-color:#A18357"/>
			</linearGradient>
			<path style="fill:url(#SVGID_00000000923638489089302480000005872897939041649325_);" d="M590.02,674.88h-5.54v29.35l27.88-22.89
				c6.37-5.54,5.35-6.37-2.03-6.46v-0.92h16.61v0.92c-3.14,0.09-4.8,0.46-12.18,6.28l-21.23,17.35l32.4,39.14h3.78v0.92h-19.38
				v-0.92h4.8l-28.06-33.87l-2.58,2.21v31.66h5.54v0.92h-19.38v-0.92h5.54v-62.76h-5.54v-0.92h19.38V674.88z"/>
			
				<linearGradient id="SVGID_00000021838827021642648020000016137784988599020176_" gradientUnits="userSpaceOnUse" x1="630.1685" y1="706.2615" x2="690.1636" y2="706.2615">
				<stop  offset="0" style="stop-color:#A18357"/>
				<stop  offset="0.45" style="stop-color:#EEC280"/>
				<stop  offset="0.9725" style="stop-color:#A18357"/>
			</linearGradient>
			<path style="fill:url(#SVGID_00000021838827021642648020000016137784988599020176_);" d="M666.17,737.64h11.91l-9.6-24.92h-22.98
				l-6.55,16.98c-2.49,7.11-1.2,7.85,7.85,7.94v0.92h-16.61v-0.92c2.68-0.09,4.25-0.83,6.83-6.65l21.97-57.04h3.42l24.55,63.69h3.23
				v0.92h-24V737.64z M637.09,734.6l-1.2,3.05L637.09,734.6z M668.1,711.8L656.94,683l-11.08,28.8H668.1z"/>
			
				<linearGradient id="SVGID_00000051358131458475485440000007394432575713183657_" gradientUnits="userSpaceOnUse" x1="691.5444" y1="706.2615" x2="753.1089" y2="706.2615">
				<stop  offset="0" style="stop-color:#A18357"/>
				<stop  offset="0.45" style="stop-color:#EEC280"/>
				<stop  offset="0.9725" style="stop-color:#A18357"/>
			</linearGradient>
			<path style="fill:url(#SVGID_00000051358131458475485440000007394432575713183657_);" d="M742.03,689.65
				c0,13.2-11.72,15.88-21.69,16.34c3.32,1.2,6.46,3.51,9.32,7.38l7.01,9.6c8.77,12,13.48,14.49,16.43,14.49v1.11h-3.32
				c-8.21,0-14.21-3.14-20.03-11.08l-7.66-10.43c-6.18-8.49-8.77-10.98-10.98-10.98h-5.72v31.57h5.54v0.92h-19.38v-0.92h5.54v-62.76
				h-5.54v-0.92h24.37C727.26,673.96,742.03,674.97,742.03,689.65z M732.8,690.94c0-10.06-6.46-15.88-16.89-15.88h-10.52v29.91h8.95
				h1.57C725.51,704.97,732.8,702.11,732.8,690.94z"/>
			
				<linearGradient id="SVGID_00000041974758929608713190000000375281141126915477_" gradientUnits="userSpaceOnUse" x1="747.5679" y1="706.9998" x2="804.7017" y2="706.9998">
				<stop  offset="0" style="stop-color:#A18357"/>
				<stop  offset="0.45" style="stop-color:#EEC280"/>
				<stop  offset="0.9725" style="stop-color:#A18357"/>
			</linearGradient>
			<path style="fill:url(#SVGID_00000041974758929608713190000000375281141126915477_);" d="M753.11,717.89v-43.01h-5.54v-0.92
				h23.08v0.92h-9.23v43.66c0,14.21,4.89,20.03,15.32,20.03c12.46,0,21.32-8.31,21.32-19.84v-34.89c0-7.38-0.55-8.77-7.38-8.95
				v-0.92h14.03v0.92c-3.97,0.18-5.26,1.57-5.26,8.95v34.43c0,13.38-9.42,21.78-24.09,21.78
				C761.32,740.04,753.11,733.31,753.11,717.89z"/>
			
				<linearGradient id="SVGID_00000160872690597640704050000017296914442063742124_" gradientUnits="userSpaceOnUse" x1="805.6206" y1="706.2615" x2="859.9849" y2="706.2615">
				<stop  offset="0" style="stop-color:#A18357"/>
				<stop  offset="0.45" style="stop-color:#EEC280"/>
				<stop  offset="0.9725" style="stop-color:#A18357"/>
			</linearGradient>
			<path style="fill:url(#SVGID_00000160872690597640704050000017296914442063742124_);" d="M853.34,728.04v-44.21
				c0-7.38-1.57-8.68-5.54-8.95v-0.92h12.18v0.92c-3.69,0.28-5.26,1.57-5.26,8.95v54.73h-4.8l-37.66-62.76v52.89
				c0,7.38,1.57,8.68,5.54,8.95v0.92h-12.18v-0.92c3.69-0.28,5.26-1.57,5.26-8.95v-53.81h-5.26v-0.92h15.04L853.34,728.04z"/>
			
				<linearGradient id="SVGID_00000127740164811252977670000011948203189912219547_" gradientUnits="userSpaceOnUse" x1="861.8267" y1="706.2615" x2="881.2095" y2="706.2615">
				<stop  offset="0" style="stop-color:#A18357"/>
				<stop  offset="0.45" style="stop-color:#EEC280"/>
				<stop  offset="0.9725" style="stop-color:#A18357"/>
			</linearGradient>
			<path style="fill:url(#SVGID_00000127740164811252977670000011948203189912219547_);" d="M881.21,674.88h-5.54v62.76h5.54v0.92
				h-19.38v-0.92h5.54v-62.76h-5.54v-0.92h19.38V674.88z"/>
		</g>
		<g>
			<g>
				
					<linearGradient id="SVGID_00000127006161384127153170000013299399209539752873_" gradientUnits="userSpaceOnUse" x1="440.8897" y1="458.0994" x2="639.1099" y2="458.0994">
					<stop  offset="0" style="stop-color:#A18357"/>
					<stop  offset="0.45" style="stop-color:#EEC280"/>
					<stop  offset="0.9725" style="stop-color:#A18357"/>
				</linearGradient>
				<path style="fill:url(#SVGID_00000127006161384127153170000013299399209539752873_);" d="M575.84,437.09
					c-0.21-0.64-0.38-1.3-0.51-1.97c-0.54-2.64-0.55-5.43-0.14-8.21c-0.98,0.29-1.96,0.53-2.93,0.74c-0.15,1.29-0.23,2.59-0.21,3.9
					c0.02,2.39,0.42,4.81,1.2,7.07c1.6,1.78,3.51,3.31,5.59,4.5c0.84,0.49,1.71,0.93,2.59,1.33c0.6-0.76,1.24-1.51,1.91-2.24
					c-2.22-0.96-4.27-2.18-6.02-3.7C576.79,438.05,576.3,437.58,575.84,437.09z M504.16,479.11c0.2,0.64,0.38,1.3,0.51,1.97
					c0.55,2.64,0.55,5.43,0.14,8.21c0.98-0.29,1.96-0.53,2.93-0.74c0.15-1.29,0.23-2.59,0.21-3.9c-0.02-2.39-0.42-4.81-1.2-7.07
					c-1.6-1.78-3.51-3.31-5.59-4.5c-0.84-0.49-1.71-0.93-2.59-1.33c-0.6,0.76-1.24,1.51-1.91,2.24c2.22,0.95,4.27,2.18,6.02,3.7
					C503.21,478.15,503.7,478.62,504.16,479.11z M563.06,393.92c-1.62,0.53-3.23,1.16-4.82,1.86c0.13,0.2,0.28,0.39,0.41,0.59
					c0.22,0.33,0.42,0.67,0.63,1c-0.35,0.93-0.74,1.85-1.17,2.73c-0.86,1.78-1.87,3.45-2.99,5.02c0.19,1.16,0.44,2.33,0.76,3.5
					c2-2.52,3.76-5.34,5.09-8.4c2.21,4,3.87,8.13,4.98,12.22c4.08-1.14,8.48-1.82,13.05-1.97c-1.65,2.29-2.99,4.75-4.06,7.27
					c1.3-0.47,2.54-1.02,3.74-1.63c0.56-1.1,1.19-2.19,1.88-3.24c0.54-0.83,1.12-1.63,1.75-2.41c0.27,0.01,0.55,0.01,0.82,0.02
					c-0.18-1.37-0.42-2.71-0.69-4.04c-0.42,0.43-0.85,0.86-1.24,1.31c-4.6-0.07-9.08,0.4-13.33,1.33
					c-1.38-4.12-3.26-8.19-5.66-12.09C562.54,395.98,562.83,394.95,563.06,393.92z M579.03,472.57c-2.06,1.22-3.95,2.77-5.53,4.57
					c-0.74,2.28-1.11,4.7-1.1,7.09c0,0.97,0.05,1.94,0.14,2.91c0.96,0.14,1.93,0.31,2.9,0.53c-0.28-2.4-0.24-4.79,0.19-7.07
					c0.13-0.67,0.29-1.33,0.49-1.98c0.46-0.5,0.94-0.98,1.45-1.43c2.01-1.79,4.42-3.19,7.04-4.23c-0.74-0.7-1.44-1.43-2.1-2.17
					C581.32,471.32,580.15,471.9,579.03,472.57z M500.97,443.62c2.06-1.22,3.95-2.77,5.53-4.57c0.74-2.28,1.11-4.7,1.1-7.09
					c0-0.97-0.05-1.94-0.14-2.9c-0.96-0.14-1.93-0.31-2.9-0.53c0.28,2.4,0.24,4.79-0.19,7.06c-0.13,0.67-0.29,1.33-0.49,1.98
					c-0.46,0.5-0.94,0.98-1.45,1.43c-2.01,1.79-4.42,3.19-7.04,4.23c0.74,0.7,1.44,1.43,2.1,2.17
					C498.68,444.88,499.85,444.29,500.97,443.62z M516.94,522.28c1.62-0.53,3.23-1.16,4.82-1.86c-0.13-0.2-0.28-0.39-0.41-0.59
					c-0.22-0.33-0.42-0.67-0.63-1c0.35-0.93,0.74-1.84,1.17-2.73c0.86-1.78,1.87-3.45,2.99-5.02c-0.19-1.16-0.44-2.33-0.76-3.5
					c-2,2.52-3.76,5.34-5.09,8.4c-2.21-4-3.87-8.13-4.98-12.22c-4.08,1.14-8.48,1.82-13.05,1.97c1.65-2.29,2.99-4.75,4.06-7.27
					c-1.3,0.47-2.54,1.02-3.74,1.63c-0.56,1.1-1.18,2.19-1.88,3.24c-0.54,0.83-1.13,1.63-1.75,2.41c-0.27-0.01-0.55-0.01-0.82-0.02
					c0.18,1.37,0.42,2.71,0.69,4.04c0.42-0.43,0.85-0.86,1.24-1.31c4.6,0.07,9.08-0.4,13.33-1.33c1.38,4.12,3.26,8.19,5.66,12.09
					C517.46,520.22,517.17,521.25,516.94,522.28z M608.64,417.86c0.01,0.41,0.01,0.83,0,1.24c0.04,3.58-0.34,7.09-1.04,10.48
					c0.86-0.11,1.72-0.21,2.59-0.27c0.67-3.67,0.99-7.45,0.86-11.26c-0.01-0.52-0.02-1.05-0.04-1.57c-0.45-0.28-0.9-0.54-1.35-0.81
					c-3.81-2.31-7.89-4.07-12.04-5.34c-0.49,0.74-0.99,1.47-1.51,2.18c3.92,1.09,7.79,2.64,11.46,4.75
					C607.92,417.45,608.28,417.65,608.64,417.86z M617.67,437.87c-1.29,0.93-2.63,1.78-4.01,2.53c0.64,0.6,1.26,1.22,1.86,1.84
					c1.93-1.14,3.77-2.44,5.51-3.88C619.92,438.15,618.79,437.98,617.67,437.87z M600.62,447.32c-2.36,3.91-5.11,7.42-8.1,10.43
					c3.03,2.97,5.82,6.44,8.23,10.32c-2.81-0.28-5.62-0.21-8.33,0.12c1.05,0.89,2.13,1.7,3.25,2.42c1.25-0.07,2.51-0.07,3.79,0.01
					c0.98,0.05,1.97,0.16,2.96,0.31c0.13,0.24,0.26,0.48,0.39,0.72c1.11-0.85,2.18-1.75,3.21-2.67c-0.61-0.15-1.22-0.3-1.83-0.42
					c-2.23-4-4.87-7.63-7.79-10.84c2.88-3.25,5.46-6.92,7.64-10.95c1.04-0.22,2.06-0.48,3.08-0.8c-1.27-1.14-2.61-2.21-4.01-3.24
					c-0.1,0.22-0.21,0.44-0.31,0.65c-0.18,0.35-0.37,0.7-0.55,1.04c-0.98,0.16-1.97,0.28-2.95,0.35c-1.96,0.15-3.9,0.11-5.8-0.07
					c-0.92,0.75-1.8,1.55-2.66,2.41C593.99,447.59,597.31,447.7,600.62,447.32z M611.55,498.78c0.02-0.52,0.02-1.05,0.03-1.57
					c0.1-4.46-0.42-8.86-1.4-13.1c-0.88-0.05-1.77-0.12-2.64-0.22c1.01,3.94,1.6,8.07,1.61,12.3c0.01,0.41,0.01,0.83,0.01,1.24
					c-0.36,0.21-0.71,0.42-1.07,0.62c-3.07,1.82-6.3,3.23-9.57,4.32c0.53,0.69,1.04,1.39,1.53,2.11c3.51-1.26,6.93-2.86,10.16-4.88
					C610.66,499.33,611.11,499.06,611.55,498.78z M468.45,417.42c-0.02,0.52-0.02,1.05-0.02,1.57c-0.1,4.46,0.42,8.86,1.4,13.1
					c0.88,0.05,1.77,0.12,2.64,0.22c-1.01-3.94-1.6-8.07-1.61-12.3c-0.01-0.41-0.01-0.82-0.01-1.24c0.36-0.21,0.71-0.42,1.07-0.62
					c3.07-1.82,6.3-3.23,9.57-4.32c-0.53-0.69-1.04-1.39-1.53-2.11c-3.51,1.26-6.93,2.86-10.16,4.88
					C469.34,416.87,468.89,417.14,468.45,417.42z M582.95,505.17c-0.63-0.77-1.23-1.56-1.78-2.38c-1.11-1.62-2.05-3.33-2.84-5.06
					c-1.1-0.42-2.24-0.79-3.41-1.1c1.18,2.99,2.77,5.9,4.76,8.59c-4.58-0.09-9-0.71-13.11-1.8c-1.06,4.1-2.66,8.26-4.82,12.29
					c-1.16-2.57-2.62-4.97-4.27-7.16c-0.24,1.35-0.4,2.69-0.47,4.03c0.68,1.05,1.32,2.14,1.89,3.28c0.45,0.88,0.85,1.79,1.21,2.72
					c-0.14,0.23-0.29,0.47-0.43,0.7c1.29,0.54,2.6,1.01,3.91,1.44c-0.17-0.6-0.35-1.2-0.56-1.8c2.35-3.93,4.17-8.03,5.49-12.17
					c4.27,0.87,8.75,1.28,13.35,1.15c0.7,0.78,1.43,1.52,2.19,2.23c0.35-1.66,0.6-3.35,0.79-5.06c-0.24,0.02-0.48,0.05-0.72,0.06
					C583.74,505.15,583.34,505.16,582.95,505.17z M540.26,496.64c-2.34,0.5-4.62,1.39-6.69,2.59c-0.84,0.48-1.66,1.01-2.45,1.57
					c0.36,0.9,0.69,1.83,0.98,2.78c1.94-1.44,4.02-2.61,6.22-3.37c0.65-0.22,1.3-0.41,1.96-0.57c0.66,0.14,1.31,0.33,1.96,0.54
					c2.56,0.85,4.97,2.24,7.18,3.98c0.24-0.99,0.52-1.96,0.83-2.91c-1.04-0.77-2.13-1.49-3.27-2.12
					C544.9,497.97,542.61,497.1,540.26,496.64z M594.36,398.09c-1.58,0.73-3.11,1.54-4.57,2.45c0.24,0.84,0.47,1.68,0.68,2.53
					c0.76-0.5,1.54-0.98,2.33-1.43C593.38,400.49,593.91,399.31,594.36,398.09z M539.74,419.56c2.34-0.49,4.62-1.39,6.69-2.59
					c0.84-0.48,1.66-1.01,2.45-1.57c-0.36-0.9-0.69-1.83-0.98-2.78c-1.94,1.44-4.02,2.61-6.22,3.37c-0.65,0.22-1.3,0.41-1.96,0.57
					c-0.66-0.14-1.31-0.33-1.96-0.54c-2.56-0.85-4.97-2.24-7.18-3.98c-0.24,0.99-0.52,1.96-0.83,2.91c1.04,0.77,2.13,1.49,3.27,2.12
					C535.1,418.23,537.39,419.1,539.74,419.56z M497.05,411.03c0.63,0.77,1.23,1.56,1.78,2.38c1.11,1.62,2.05,3.33,2.84,5.07
					c1.1,0.42,2.24,0.79,3.41,1.1c-1.18-2.99-2.77-5.9-4.76-8.59c4.58,0.09,9,0.71,13.11,1.8c1.06-4.1,2.66-8.26,4.82-12.29
					c1.16,2.57,2.62,4.97,4.27,7.16c0.24-1.35,0.4-2.69,0.47-4.03c-0.68-1.05-1.32-2.14-1.89-3.28c-0.45-0.88-0.85-1.79-1.21-2.72
					c0.14-0.23,0.28-0.47,0.43-0.7c-1.29-0.54-2.6-1.01-3.91-1.44c0.17,0.6,0.35,1.2,0.56,1.8c-2.35,3.93-4.17,8.03-5.5,12.17
					c-4.27-0.87-8.75-1.28-13.35-1.15c-0.69-0.78-1.43-1.52-2.19-2.23c-0.35,1.66-0.6,3.35-0.79,5.06c0.24-0.02,0.48-0.05,0.72-0.06
					C496.26,411.05,496.66,411.04,497.05,411.03z M458.97,477.83c1.12,0.22,2.24,0.38,3.36,0.5c1.29-0.93,2.63-1.78,4.01-2.54
					c-0.64-0.6-1.26-1.22-1.86-1.84C462.55,475.1,460.71,476.4,458.97,477.83z M472.88,470.22c1.27,1.13,2.61,2.21,4.01,3.24
					c0.1-0.22,0.21-0.43,0.31-0.65c0.18-0.35,0.37-0.7,0.55-1.04c0.98-0.16,1.97-0.28,2.95-0.35c1.96-0.15,3.9-0.11,5.8,0.08
					c0.92-0.75,1.8-1.55,2.66-2.41c-3.17-0.47-6.49-0.58-9.8-0.2c2.36-3.91,5.11-7.42,8.1-10.43c-3.03-2.97-5.82-6.44-8.23-10.32
					c2.81,0.28,5.62,0.22,8.33-0.12c-1.05-0.89-2.13-1.69-3.25-2.42c-1.25,0.06-2.51,0.07-3.79-0.01c-0.99-0.05-1.97-0.16-2.96-0.31
					c-0.13-0.24-0.26-0.48-0.39-0.72c-1.11,0.85-2.18,1.75-3.21,2.67c0.61,0.15,1.22,0.3,1.83,0.42c2.23,4,4.87,7.63,7.79,10.84
					c-2.88,3.25-5.46,6.92-7.64,10.94C474.93,469.64,473.9,469.91,472.88,470.22z M562.49,532.06c0.71,1.09,1.49,2.14,2.33,3.16
					c0.16-1.74,0.22-3.47,0.17-5.2c-0.86-0.21-1.71-0.44-2.56-0.69C562.48,530.24,562.5,531.15,562.49,532.06z M628.54,398.34
					c2.67,0.84,5.27,1.95,7.76,3.3c-0.03,2.83-0.33,5.64-0.91,8.38c-1.57,7.73-5.13,14.9-10.03,20.7c0.83,0.22,1.64,0.46,2.46,0.72
					c4.54-5.7,7.86-12.5,9.45-19.81c0.81-3.65,1.17-7.42,1.08-11.19c-3.24-1.92-6.71-3.45-10.29-4.52
					c-7.84-2.39-16.17-2.66-23.98-1.04c-0.05,0.21-0.09,0.41-0.13,0.62c-0.16,0.66-0.35,1.31-0.53,1.96
					C611.46,395.48,620.29,395.7,628.54,398.34z M592.16,513.04c-0.2,0.84-0.42,1.68-0.66,2.51c1.94,1.1,3.99,2.04,6.1,2.83
					c-0.37-1.07-0.78-2.11-1.23-3.13C594.91,514.59,593.5,513.86,592.16,513.04z M519.2,372.84c2.31-7.95,6.92-15.48,13.32-21.3
					c2.06-1.89,4.33-3.59,6.74-5.06c2.43,1.44,4.72,3.11,6.81,4.97c5.91,5.23,10.34,11.89,12.91,19.03c0.6-0.6,1.21-1.18,1.83-1.75
					c-2.67-6.78-6.88-13.08-12.41-18.11c-2.76-2.53-5.84-4.73-9.15-6.53c-3.29,1.85-6.34,4.09-9.06,6.65
					c-6,5.6-10.38,12.68-12.88,20.26c0.15,0.14,0.31,0.27,0.46,0.42C518.25,371.89,518.73,372.36,519.2,372.84z M612.9,474.3
					c0.81,0.4,1.6,0.84,2.39,1.3c1.3-0.07,2.61-0.22,3.91-0.43c-1.42-1.01-2.9-1.92-4.42-2.75
					C614.16,473.06,613.54,473.68,612.9,474.3z M453.21,434.22c0.2-0.06,0.4-0.13,0.6-0.19c0.65-0.2,1.31-0.35,1.96-0.52
					c-5.74-5.98-9.96-13.74-11.8-22.2c-0.61-2.73-0.95-5.54-1.02-8.37c2.46-1.38,5.05-2.53,7.71-3.41
					c7.48-2.5,15.47-3.01,22.94-1.66c-0.22-0.82-0.42-1.65-0.61-2.48c-7.21-1.08-14.76-0.56-21.88,1.72
					c-3.57,1.12-7.01,2.7-10.23,4.66c-0.04,3.77,0.37,7.53,1.23,11.17C443.97,420.92,447.9,428.27,453.21,434.22z M637.88,503.27
					c-1.85-7.99-5.78-15.34-11.09-21.28c-0.2,0.06-0.4,0.13-0.6,0.19c-0.65,0.2-1.31,0.35-1.96,0.52c5.74,5.98,9.96,13.74,11.8,22.2
					c0.61,2.73,0.95,5.54,1.02,8.37c-2.46,1.38-5.05,2.53-7.71,3.41c-7.48,2.5-15.47,3-22.94,1.66c0.22,0.82,0.42,1.65,0.61,2.48
					c7.21,1.08,14.76,0.56,21.88-1.72c3.57-1.12,7.01-2.7,10.23-4.66C639.15,510.67,638.74,506.91,637.88,503.27z M564.03,384.77
					c-0.02-2.24-0.23-4.48-0.6-6.71c-0.75,0.86-1.46,1.75-2.12,2.66c0.16,1.59,0.22,3.17,0.19,4.75
					C562.34,385.21,563.18,384.98,564.03,384.77z M451.46,517.86c-2.67-0.84-5.27-1.95-7.76-3.3c0.03-2.83,0.33-5.64,0.91-8.38
					c1.57-7.73,5.13-14.9,10.03-20.69c-0.83-0.22-1.64-0.46-2.45-0.72c-4.54,5.7-7.86,12.5-9.45,19.81
					c-0.81,3.65-1.17,7.42-1.08,11.19c3.24,1.92,6.71,3.45,10.29,4.52c7.84,2.39,16.17,2.66,23.98,1.04
					c0.05-0.21,0.09-0.41,0.13-0.62c0.16-0.66,0.35-1.31,0.53-1.96C468.54,520.72,459.71,520.5,451.46,517.86z M560.8,543.36
					c-2.31,7.95-6.92,15.48-13.32,21.3c-2.07,1.89-4.33,3.59-6.74,5.06c-2.43-1.44-4.72-3.11-6.81-4.97
					c-5.91-5.23-10.34-11.89-12.91-19.03c-0.6,0.6-1.21,1.18-1.83,1.75c2.67,6.78,6.88,13.08,12.41,18.11
					c2.76,2.53,5.84,4.73,9.15,6.53c3.29-1.85,6.34-4.09,9.06-6.65c6-5.6,10.38-12.68,12.88-20.26c-0.15-0.14-0.31-0.27-0.46-0.41
					C561.75,544.31,561.27,543.84,560.8,543.36z M487.84,403.16c0.2-0.84,0.42-1.68,0.66-2.51c-1.94-1.1-3.99-2.04-6.1-2.83
					c0.37,1.07,0.78,2.11,1.23,3.13C485.09,401.61,486.49,402.34,487.84,403.16z M464.71,440.6c-1.3,0.08-2.61,0.22-3.91,0.43
					c1.42,1.01,2.9,1.92,4.42,2.75c0.61-0.64,1.23-1.26,1.87-1.88C466.29,441.5,465.5,441.06,464.71,440.6z M540.55,540.4
					c0.46-0.25,0.92-0.5,1.37-0.76c3.91-2.15,7.48-4.8,10.66-7.77c-0.4-0.79-0.77-1.6-1.12-2.41c-2.91,2.86-6.2,5.44-9.86,7.57
					c-0.35,0.21-0.71,0.42-1.07,0.63c-0.36-0.2-0.72-0.41-1.08-0.62c-3.11-1.75-5.94-3.83-8.52-6.12c-0.33,0.8-0.69,1.59-1.07,2.38
					c2.84,2.41,5.94,4.57,9.3,6.35C539.62,539.91,540.08,540.16,540.55,540.4z M539.45,375.8c-0.46,0.25-0.92,0.5-1.37,0.76
					c-3.91,2.15-7.48,4.8-10.66,7.77c0.4,0.8,0.77,1.6,1.12,2.41c2.91-2.86,6.2-5.44,9.86-7.57c0.35-0.21,0.71-0.42,1.07-0.63
					c0.36,0.2,0.72,0.41,1.07,0.62c3.11,1.75,5.94,3.83,8.52,6.12c0.33-0.8,0.69-1.59,1.07-2.38c-2.84-2.41-5.94-4.57-9.3-6.35
					C540.38,376.29,539.92,376.04,539.45,375.8z M517.51,384.14c-0.71-1.09-1.49-2.14-2.33-3.16c-0.16,1.73-0.22,3.47-0.17,5.2
					c0.86,0.21,1.71,0.44,2.56,0.69C517.52,385.96,517.5,385.05,517.51,384.14z M515.97,531.43c0.02,2.24,0.23,4.49,0.6,6.71
					c0.75-0.86,1.45-1.74,2.12-2.66c-0.16-1.59-0.22-3.17-0.19-4.75C517.66,530.99,516.82,531.22,515.97,531.43z M471.36,498.34
					c-0.01-0.41-0.01-0.83,0-1.24c-0.04-3.57,0.34-7.07,1.03-10.45c-0.85,0.12-1.71,0.21-2.58,0.27c-0.66,3.67-0.99,7.43-0.85,11.24
					c0.01,0.52,0.02,1.05,0.04,1.57c0.45,0.28,0.9,0.54,1.35,0.81c3.81,2.31,7.89,4.07,12.04,5.34c0.49-0.74,0.99-1.47,1.51-2.18
					c-3.92-1.09-7.79-2.64-11.46-4.75C472.08,498.75,471.72,498.55,471.36,498.34z M487.19,514.56c-0.58,1.15-1.1,2.33-1.56,3.55
					c1.58-0.73,3.1-1.54,4.57-2.45c-0.24-0.83-0.47-1.68-0.68-2.53C488.77,513.63,487.99,514.11,487.19,514.56z"/>
				
					<linearGradient id="SVGID_00000054944714260502677880000012440441509624367281_" gradientUnits="userSpaceOnUse" x1="426.0179" y1="458.0996" x2="653.9822" y2="458.0996">
					<stop  offset="0" style="stop-color:#A18357"/>
					<stop  offset="0.45" style="stop-color:#EEC280"/>
					<stop  offset="0.9725" style="stop-color:#A18357"/>
				</linearGradient>
				<path style="fill:url(#SVGID_00000054944714260502677880000012440441509624367281_);" d="M496.1,556.55
					c8.79-2.15,16.78-6.83,22.93-13.08c5.74-5.84,9.91-13.23,11.34-21.06c3.97-2.28,7.57-4.97,10.74-7.93
					c3.3,2.84,7.01,5.39,11.08,7.52c1.73,7.76,6.15,14.98,12.11,20.58c6.39,6,14.55,10.36,23.42,12.17
					c3.66,0.76,7.44,1.08,11.2,0.94c1.88-3.27,3.36-6.75,4.39-10.35c2.53-8.69,2.47-17.95,0.14-26.39
					c-2.19-7.89-6.5-15.2-12.57-20.35c0.01-4.58-0.52-9.04-1.5-13.27c4.1-1.43,8.15-3.36,12.02-5.81
					c7.59,2.39,16.08,2.14,23.92-0.22c8.39-2.53,16.25-7.42,22.25-14.2c2.49-2.79,4.65-5.9,6.41-9.23
					c-1.89-3.26-4.17-6.29-6.77-8.98c-6.26-6.53-14.3-11.11-22.79-13.32c-7.92-2.05-16.38-1.93-23.87,0.74
					c-3.98-2.31-8.12-4.09-12.28-5.36c0.81-4.26,1.16-8.74,0.98-13.31c5.86-5.38,9.89-12.86,11.77-20.82
					c2-8.53,1.7-17.79-1.17-26.37c-1.17-3.55-2.79-6.98-4.79-10.17c-3.77,0.01-7.53,0.47-11.16,1.38
					c-8.79,2.15-16.78,6.83-22.93,13.08c-5.74,5.84-9.91,13.23-11.34,21.06c-3.97,2.28-7.57,4.97-10.74,7.93
					c-3.3-2.84-7.01-5.39-11.08-7.52c-1.73-7.76-6.15-14.98-12.11-20.58c-6.39-6-14.56-10.36-23.42-12.17
					c-3.66-0.76-7.44-1.08-11.2-0.94c-1.88,3.27-3.36,6.75-4.39,10.35c-2.53,8.69-2.47,17.94-0.14,26.39
					c2.19,7.89,6.5,15.2,12.57,20.35c-0.01,4.58,0.52,9.04,1.5,13.27c-4.1,1.43-8.15,3.36-12.02,5.81
					c-7.59-2.39-16.08-2.14-23.92,0.22c-8.39,2.53-16.25,7.42-22.25,14.2c-2.49,2.79-4.65,5.9-6.42,9.23
					c1.89,3.26,4.17,6.29,6.77,8.98c6.26,6.54,14.3,11.11,22.79,13.32c7.92,2.05,16.38,1.93,23.87-0.74
					c3.98,2.31,8.11,4.09,12.28,5.36c-0.81,4.26-1.16,8.74-0.98,13.32c-5.86,5.38-9.89,12.86-11.77,20.82
					c-2,8.54-1.7,17.79,1.17,26.37c1.17,3.55,2.79,6.98,4.79,10.17C488.71,557.92,492.47,557.46,496.1,556.55z M526.94,521.25
					c-7.06,3.75-15.37,6.35-24.13,6.48c-0.41,0.01-0.83,0.02-1.24,0.03c-0.22-0.35-0.43-0.71-0.64-1.06
					c-4.56-7.48-6.8-15.9-7.39-23.87c-0.03-0.4-0.04-0.79-0.06-1.18c0.76-0.64,1.55-1.25,2.36-1.81c3.39-2.38,7.13-4.03,10.87-5.07
					c3.75-1.04,7.62-1.4,11.23-0.75c0.67,0.12,1.34,0.27,1.98,0.46c0.5,0.45,0.99,0.93,1.45,1.43c2.48,2.71,4.24,6.17,5.35,9.9
					c1.11,3.72,1.72,7.76,1.51,11.9c-0.04,0.99-0.13,1.97-0.27,2.96C527.63,520.87,527.29,521.07,526.94,521.25z M585.75,498.09
					c0.83,0.53,1.64,1.1,2.43,1.71c0,0.39,0,0.79-0.01,1.18c-0.28,7.99-2.19,16.49-6.45,24.14c-0.19,0.36-0.39,0.73-0.59,1.09
					c-0.41,0.01-0.83,0.02-1.24,0.02c-8.76,0.21-17.17-2.06-24.37-5.53c-0.36-0.17-0.7-0.36-1.05-0.54
					c-0.17-0.98-0.31-1.96-0.39-2.95c-0.37-4.13,0.08-8.19,1.05-11.95c0.97-3.77,2.6-7.29,4.96-10.1c0.44-0.52,0.9-1.02,1.39-1.49
					c0.64-0.21,1.3-0.39,1.96-0.54c3.58-0.79,7.47-0.59,11.25,0.31C578.47,494.34,582.27,495.84,585.75,498.09z M600.85,518.59
					c2.69,8.57,2.8,18.25,0.04,27.27c-0.81,2.68-1.88,5.3-3.2,7.8c-2.83,0-5.64-0.26-8.39-0.8c-9.27-1.76-17.78-6.37-24.11-12.74
					c-4.74-4.73-8.22-10.55-9.96-16.63c0.55,0.25,1.11,0.5,1.67,0.73c7.3,3.05,15.63,4.81,24.06,4.4c0.52-0.01,1.05-0.04,1.57-0.07
					c0.27-0.45,0.53-0.9,0.79-1.36c4.29-7.27,6.61-15.47,7.31-23.34c0.06-0.61,0.09-1.22,0.13-1.83
					C595.34,506.41,598.87,512.19,600.85,518.59z M598.23,475.46c-3.76-1.75-7.06-4.16-9.83-6.88c-2.78-2.72-5.02-5.9-6.27-9.35
					c-0.23-0.64-0.43-1.29-0.59-1.95c0.14-0.66,0.31-1.32,0.52-1.97c1.11-3.5,3.22-6.76,5.89-9.59c2.67-2.82,5.87-5.37,9.55-7.26
					c0.87-0.46,1.78-0.87,2.7-1.25c0.34,0.2,0.68,0.39,1.02,0.6c6.78,4.23,13.19,10.14,17.68,17.66c0.22,0.35,0.43,0.7,0.64,1.06
					c-0.2,0.37-0.4,0.73-0.6,1.08c-4.2,7.69-10.37,13.84-16.98,18.34c-0.33,0.22-0.66,0.43-0.99,0.64
					C600.04,476.27,599.12,475.89,598.23,475.46z M622.81,435.65c8.77,1.95,17.2,6.69,23.64,13.59c1.92,2.04,3.65,4.28,5.15,6.67
					c-1.41,2.45-3.05,4.76-4.89,6.87c-6.16,7.15-14.4,12.21-23.09,14.51c-6.47,1.74-13.24,1.84-19.38,0.3
					c0.49-0.36,0.99-0.71,1.47-1.08c6.29-4.79,11.98-11.13,15.84-18.64c0.25-0.46,0.49-0.92,0.73-1.39
					c-0.26-0.46-0.52-0.91-0.78-1.36c-4.15-7.35-10.09-13.46-16.56-18c-0.5-0.35-1.01-0.69-1.52-1.03
					C609.51,434.33,616.28,434.16,622.81,435.65z M584.15,416.36c-3.39,2.38-7.13,4.03-10.87,5.07c-3.75,1.04-7.62,1.4-11.23,0.75
					c-0.67-0.12-1.33-0.27-1.98-0.46c-0.5-0.45-0.99-0.93-1.45-1.43c-2.48-2.71-4.24-6.17-5.35-9.9c-1.11-3.72-1.72-7.76-1.51-11.9
					c0.04-0.99,0.14-1.97,0.27-2.96c0.34-0.19,0.68-0.39,1.03-0.58c7.06-3.75,15.37-6.35,24.13-6.48c0.41-0.01,0.82-0.02,1.24-0.03
					c0.22,0.35,0.43,0.71,0.64,1.06c4.56,7.48,6.8,15.9,7.39,23.87c0.03,0.39,0.04,0.79,0.06,1.18
					C585.75,415.19,584.96,415.79,584.15,416.36z M561.96,375.16c6.08-6.62,14.4-11.55,23.59-13.67c2.73-0.64,5.53-1.02,8.36-1.12
					c1.42,2.45,2.59,5.02,3.51,7.67c3.11,8.91,3.38,18.58,1.02,27.25c-1.73,6.47-5.03,12.39-9.43,16.94
					c-0.06-0.6-0.12-1.21-0.2-1.82c-1.01-7.85-3.65-15.94-8.22-23.04c-0.27-0.45-0.55-0.89-0.84-1.33c-0.52-0.01-1.05-0.01-1.57,0
					c-8.44-0.08-16.7,2.01-23.87,5.34c-0.56,0.26-1.1,0.53-1.64,0.8C554.16,386.02,557.41,380.07,561.96,375.16z M494.25,418.11
					c-0.83-0.53-1.64-1.1-2.43-1.71c0-0.39,0-0.79,0.01-1.18c0.28-7.99,2.19-16.49,6.45-24.14c0.19-0.36,0.39-0.73,0.59-1.09
					c0.41-0.01,0.83-0.02,1.24-0.02c8.76-0.21,17.17,2.06,24.37,5.53c0.36,0.17,0.7,0.36,1.05,0.54c0.17,0.98,0.31,1.96,0.39,2.95
					c0.37,4.13-0.08,8.19-1.05,11.95c-0.97,3.77-2.6,7.29-4.96,10.1c-0.44,0.52-0.9,1.02-1.39,1.49c-0.64,0.21-1.3,0.39-1.96,0.54
					c-3.58,0.79-7.47,0.59-11.25-0.31C501.53,421.86,497.73,420.36,494.25,418.11z M479.15,397.61c-2.69-8.57-2.8-18.25-0.05-27.27
					c0.81-2.68,1.88-5.3,3.2-7.8c2.83,0,5.64,0.26,8.39,0.8c9.27,1.76,17.77,6.36,24.11,12.74c4.74,4.73,8.22,10.55,9.96,16.63
					c-0.55-0.25-1.11-0.5-1.68-0.73c-7.3-3.05-15.63-4.81-24.06-4.4c-0.52,0.02-1.05,0.04-1.57,0.07c-0.27,0.45-0.53,0.9-0.79,1.36
					c-4.29,7.27-6.61,15.47-7.31,23.34c-0.06,0.61-0.09,1.22-0.13,1.82C484.66,409.79,481.13,404.01,479.15,397.61z M481.77,440.73
					c3.76,1.75,7.06,4.16,9.83,6.88c2.78,2.72,5.02,5.9,6.27,9.35c0.23,0.64,0.43,1.29,0.59,1.95c-0.14,0.66-0.31,1.32-0.52,1.97
					c-1.11,3.5-3.22,6.76-5.89,9.59c-2.67,2.82-5.87,5.37-9.55,7.26c-0.88,0.46-1.78,0.87-2.7,1.25c-0.34-0.2-0.68-0.39-1.02-0.6
					c-6.78-4.24-13.19-10.14-17.68-17.66c-0.22-0.35-0.43-0.7-0.64-1.06c0.2-0.37,0.4-0.73,0.6-1.08
					c4.2-7.69,10.37-13.84,16.98-18.34c0.33-0.22,0.66-0.43,0.99-0.64C479.96,439.93,480.88,440.31,481.77,440.73z M457.19,480.55
					c-8.77-1.96-17.2-6.7-23.64-13.59c-1.92-2.04-3.65-4.28-5.15-6.68c1.41-2.45,3.05-4.76,4.89-6.87
					c6.16-7.15,14.4-12.21,23.09-14.51c6.47-1.74,13.24-1.84,19.38-0.31c-0.49,0.35-0.99,0.71-1.47,1.08
					c-6.29,4.79-11.98,11.13-15.84,18.64c-0.25,0.46-0.49,0.92-0.73,1.39c0.25,0.46,0.52,0.91,0.78,1.36
					c4.15,7.35,10.09,13.46,16.56,18c0.5,0.35,1.01,0.69,1.52,1.03C470.49,481.87,463.72,482.04,457.19,480.55z M482.68,480.59
					c3.25-1.52,6.23-3.51,8.83-5.76c3-2.59,5.64-5.68,7.54-9.21c1.15-2.1,1.98-4.4,2.41-6.75c-0.52-2.34-1.45-4.6-2.68-6.66
					c-2.04-3.46-4.79-6.44-7.9-8.91c-2.68-2.16-5.73-4.02-9.04-5.42c3.98-2.26,8.08-3.97,12.16-5.14
					c-1.19-4.07-1.93-8.46-2.14-13.03c2.94,2.06,6.15,3.64,9.4,4.76c3.75,1.31,7.74,2.04,11.75,1.93c2.39-0.05,4.8-0.48,7.06-1.29
					c1.76-1.62,3.26-3.56,4.43-5.65c1.97-3.49,3.18-7.37,3.77-11.29c0.53-3.41,0.59-6.99,0.14-10.56c3.96,2.32,7.51,5.02,10.56,7.98
					c2.93-3.06,6.36-5.9,10.21-8.37c-0.31,3.58-0.08,7.15,0.58,10.52c0.74,3.9,2.1,7.72,4.21,11.14c1.24,2.04,2.82,3.92,4.64,5.47
					c2.29,0.71,4.71,1.05,7.1,1.01c4.01-0.04,7.97-0.93,11.67-2.38c3.21-1.25,6.35-2.95,9.21-5.12c-0.03,4.57-0.6,8.99-1.63,13.1
					c4.12,1.01,8.29,2.56,12.35,4.66c-3.25,1.52-6.23,3.51-8.83,5.76c-3.01,2.59-5.64,5.68-7.54,9.21c-1.15,2.1-1.98,4.4-2.41,6.75
					c0.52,2.34,1.45,4.6,2.68,6.66c2.04,3.46,4.79,6.44,7.9,8.91c2.68,2.16,5.73,4.02,9.04,5.41c-3.98,2.26-8.08,3.97-12.16,5.14
					c1.19,4.07,1.93,8.46,2.14,13.03c-2.94-2.06-6.15-3.64-9.4-4.76c-3.75-1.31-7.74-2.04-11.75-1.93c-2.39,0.05-4.8,0.48-7.06,1.29
					c-1.76,1.62-3.26,3.56-4.43,5.65c-1.97,3.5-3.18,7.37-3.77,11.29c-0.53,3.41-0.59,6.99-0.14,10.56
					c-3.96-2.32-7.51-5.02-10.56-7.98c-2.93,3.06-6.36,5.9-10.21,8.37c0.31-3.58,0.08-7.15-0.58-10.52
					c-0.74-3.9-2.1-7.72-4.21-11.14c-1.24-2.04-2.82-3.92-4.64-5.47c-2.29-0.71-4.71-1.05-7.1-1.01c-4.01,0.04-7.97,0.93-11.67,2.38
					c-3.21,1.25-6.35,2.95-9.21,5.12c0.03-4.57,0.6-8.99,1.63-13.1C490.92,484.24,486.74,482.69,482.68,480.59z M482.58,548.17
					c-3.11-8.91-3.38-18.58-1.02-27.25c1.73-6.47,5.02-12.39,9.43-16.94c0.06,0.6,0.12,1.21,0.2,1.82
					c1.01,7.85,3.65,15.94,8.22,23.04c0.27,0.45,0.55,0.89,0.84,1.33c0.52,0.01,1.05,0.01,1.57,0c8.44,0.08,16.7-2.01,23.87-5.34
					c0.56-0.26,1.1-0.53,1.65-0.8c-1.5,6.15-4.75,12.1-9.3,17.01c-6.08,6.62-14.4,11.55-23.59,13.67c-2.73,0.64-5.53,1.02-8.36,1.12
					C484.67,553.39,483.49,550.82,482.58,548.17z"/>
			</g>
			
				<linearGradient id="SVGID_00000071534277774561455570000000328857969434091698_" gradientUnits="userSpaceOnUse" x1="421.8574" y1="458.0993" x2="658.1426" y2="458.0993">
				<stop  offset="0" style="stop-color:#A18357"/>
				<stop  offset="0.45" style="stop-color:#EEC280"/>
				<stop  offset="0.9725" style="stop-color:#A18357"/>
			</linearGradient>
			<path style="fill:url(#SVGID_00000071534277774561455570000000328857969434091698_);" d="M540,576.24
				c-65.14,0-118.14-53-118.14-118.14s53-118.14,118.14-118.14s118.14,53,118.14,118.14S605.14,576.24,540,576.24z M540,341.96
				c-64.04,0-116.14,52.1-116.14,116.14S475.96,574.24,540,574.24s116.14-52.1,116.14-116.14S604.04,341.96,540,341.96z"/>
			
				<linearGradient id="SVGID_00000025432676178557579680000005990175653643453312_" gradientUnits="userSpaceOnUse" x1="505.6074" y1="458.0993" x2="574.3926" y2="458.0993">
				<stop  offset="0" style="stop-color:#A18357"/>
				<stop  offset="0.45" style="stop-color:#EEC280"/>
				<stop  offset="0.9725" style="stop-color:#A18357"/>
			</linearGradient>
			<path style="fill:url(#SVGID_00000025432676178557579680000005990175653643453312_);" d="M540,492.49
				c-18.96,0-34.39-15.43-34.39-34.39s15.43-34.39,34.39-34.39s34.39,15.43,34.39,34.39S558.96,492.49,540,492.49z M540,425.71
				c-17.86,0-32.39,14.53-32.39,32.39s14.53,32.39,32.39,32.39s32.39-14.53,32.39-32.39S557.86,425.71,540,425.71z"/>
			
				<linearGradient id="SVGID_00000077317193212472078650000010630733807717544326_" gradientUnits="userSpaceOnUse" x1="525.6248" y1="458.0994" x2="554.3753" y2="458.0994">
				<stop  offset="0" style="stop-color:#A18357"/>
				<stop  offset="0.45" style="stop-color:#EEC280"/>
				<stop  offset="0.9725" style="stop-color:#A18357"/>
			</linearGradient>
			<circle style="fill:url(#SVGID_00000077317193212472078650000010630733807717544326_);" cx="540" cy="458.1" r="14.38"/>
		</g>
	</g>
</g>
</svg>
